 <svg  version="1.0" xmlns="http://www.w3.org/2000/svg"  width="150.000000pt" height="150.000000pt" viewBox="0 0 150.000000 150.000000"  preserveAspectRatio="xMidYMid meet">  <g transform="translate(0.000000,150.000000) scale(0.100000,-0.100000)" fill="#ffffff" stroke="none"> <path d="M704 1139 c-1 -23 -14 -65 -30 -97 -25 -48 -34 -58 -59 -60 -44 -5 -55 -19 -55 -71 1 -43 2 -45 16 -26 10 13 13 31 10 49 -5 24 -4 27 8 16 12 -9 18 -7 32 9 10 11 21 18 25 15 4 -2 11 6 15 18 7 21 9 20 15 -12 l6 -35 2 41 c2 62 19 104 39 97 9 -4 20 -11 24 -17 5 -7 8 -7 8 2 0 19 28 14 40 -7 5 -11 11 -46 11 -78 1 -32 4 -49 6 -39 4 15 7 16 15 5 11 -16 7 16 -18 130 -15 67 -19 74 -50 87 -52 22 -59 19 -60 -27z m67 1 c23 -13 24 -29 2 -45 -28 -21 -47 9 -34 53 2 5 13 2 32 -8z"/> <path d="M725 1033 c7 -40 20 -54 42 -46 17 6 17 23 1 23 -9 0 -10 2 -2 8 6 4 15 18 19 32 7 23 6 24 -9 11 -15 -12 -21 -13 -38 -2 -20 12 -20 11 -13 -26z"/> <path d="M735 796 c3 -121 2 -187 -5 -191 -5 -3 -10 -34 -10 -68 0 -85 -23 -61 -28 31 -5 96 -11 105 -33 52 l-19 -45 7 55 c7 69 -8 58 -18 -13 -4 -28 -10 -70 -14 -91 -5 -26 -4 -37 2 -33 6 4 14 24 18 44 6 35 8 36 20 19 12 -16 14 -14 18 25 l4 44 1 -47 c1 -27 -3 -48 -9 -50 -8 -3 -6 -10 5 -20 9 -9 16 -28 16 -42 0 -19 5 -24 20 -23 17 1 20 8 20 53 0 36 8 66 26 100 25 46 26 56 26 207 0 155 -4 186 -22 157 -8 -13 -10 -12 -10 3 0 9 -5 17 -11 17 -7 0 -8 -57 -4 -184z"/> <path d="M933 969 c-18 -5 -35 -14 -38 -19 -3 -6 -15 -10 -26 -10 -10 0 -19 -4 -19 -9 0 -11 39 -3 58 12 10 8 11 5 3 -17 -14 -36 -5 -33 16 7 l18 32 5 -80 c6 -84 4 -105 -11 -105 -12 0 -11 27 1 33 6 3 5 4 -2 3 -20 -4 -23 -46 -4 -46 10 0 16 -9 16 -24 0 -14 5 -28 10 -31 10 -6 13 23 14 150 1 63 3 70 25 81 23 12 23 12 3 23 -24 13 -25 13 -69 0z"/> <path d="M515 938 c-2 -7 -6 -42 -8 -78 -3 -36 -8 -77 -12 -92 -6 -21 -3 -27 15 -33 20 -6 21 -12 15 -51 -10 -69 10 -51 24 21 12 58 11 74 -5 136 -15 56 -16 74 -6 90 10 16 10 19 -3 19 -9 0 -18 -6 -20 -12z m29 -165 c4 -27 2 -43 -4 -43 -5 0 -10 3 -11 8 -10 111 -1 134 15 35z"/> <path d="M642 875 c0 -33 3 -46 5 -30 l5 30 14 -30 13 -30 -6 30 c-3 17 -12 44 -19 60 -13 29 -13 28 -12 -30z"/> <path d="M585 845 c-10 -25 -16 -48 -13 -51 3 -2 12 17 21 43 20 62 14 68 -8 8z"/> <path d="M910 856 c-15 -19 -32 -88 -19 -80 5 3 9 13 9 22 0 10 7 28 16 40 18 26 13 40 -6 18z"/> <path d="M860 770 c-2 -19 -2 -43 -1 -54 1 -15 -2 -16 -12 -7 -12 9 -16 -2 -26 -62 -7 -41 -11 -78 -10 -83 4 -16 -14 -129 -19 -116 -3 10 -8 8 -18 -7 -11 -16 -12 -29 -3 -72 10 -44 13 -49 22 -34 5 10 12 49 15 87 3 38 9 71 13 74 5 3 9 40 9 84 0 61 3 79 15 84 22 8 49 74 37 89 -6 7 -12 21 -15 32 -3 13 -6 8 -7 -15z"/> <path d="M589 770 c-2 -16 -4 -35 -14 -95 -7 -39 -6 -39 7 -15 19 34 28 93 17 111 -7 12 -9 12 -10 -1z"/> <path d="M650 740 c0 -5 3 -10 8 -10 4 0 16 -19 27 -42 13 -27 21 -36 23 -25 2 9 -4 24 -12 33 -9 8 -16 24 -16 35 0 10 -7 19 -15 19 -8 0 -15 -4 -15 -10z"/> <path d="M750 481 c0 -16 5 -33 10 -36 6 -4 10 6 10 24 0 16 -4 33 -10 36 -6 4 -10 -6 -10 -24z"/> </g> </svg> 